<svg class="rich-terminal" viewBox="0 0 994 635.5999999999999" xmlns="http://www.w3.org/2000/svg">
    <!-- Generated with Rich https://www.textualize.io -->
    <style>

    @font-face {
        font-family: "Fira Code";
        src: local("FiraCode-Regular"),
                url("https://cdnjs.cloudflare.com/ajax/libs/firacode/6.2.0/woff2/FiraCode-Regular.woff2") format("woff2"),
                url("https://cdnjs.cloudflare.com/ajax/libs/firacode/6.2.0/woff/FiraCode-Regular.woff") format("woff");
        font-style: normal;
        font-weight: 400;
    }
    @font-face {
        font-family: "Fira Code";
        src: local("FiraCode-Bold"),
                url("https://cdnjs.cloudflare.com/ajax/libs/firacode/6.2.0/woff2/FiraCode-Bold.woff2") format("woff2"),
                url("https://cdnjs.cloudflare.com/ajax/libs/firacode/6.2.0/woff/FiraCode-Bold.woff") format("woff");
        font-style: bold;
        font-weight: 700;
    }

    .terminal-3407659274-matrix {
        font-family: Fira Code, monospace;
        font-size: 20px;
        line-height: 24.4px;
        font-variant-east-asian: full-width;
    }

    .terminal-3407659274-title {
        font-size: 18px;
        font-weight: bold;
        font-family: arial;
    }

    .terminal-3407659274-r1 { fill: #121212 }
.terminal-3407659274-r2 { fill: #c5c8c6 }
.terminal-3407659274-r3 { fill: #1e1e1e }
.terminal-3407659274-r4 { fill: #1b1b1b }
.terminal-3407659274-r5 { fill: #ffff00 }
.terminal-3407659274-r6 { fill: #0178d4 }
.terminal-3407659274-r7 { fill: #787878 }
.terminal-3407659274-r8 { fill: #e0e0e0 }
.terminal-3407659274-r9 { fill: #191919 }
.terminal-3407659274-r10 { fill: #7ae998 }
.terminal-3407659274-r11 { fill: #0a180e;font-weight: bold }
.terminal-3407659274-r12 { fill: #2d2d2d }
.terminal-3407659274-r13 { fill: #008139 }
    </style>

    <defs>
    <clipPath id="terminal-3407659274-clip-terminal">
      <rect x="0" y="0" width="975.0" height="584.5999999999999" />
    </clipPath>
    <clipPath id="terminal-3407659274-line-0">
    <rect x="0" y="1.5" width="976" height="24.65"/>
            </clipPath>
<clipPath id="terminal-3407659274-line-1">
    <rect x="0" y="25.9" width="976" height="24.65"/>
            </clipPath>
<clipPath id="terminal-3407659274-line-2">
    <rect x="0" y="50.3" width="976" height="24.65"/>
            </clipPath>
<clipPath id="terminal-3407659274-line-3">
    <rect x="0" y="74.7" width="976" height="24.65"/>
            </clipPath>
<clipPath id="terminal-3407659274-line-4">
    <rect x="0" y="99.1" width="976" height="24.65"/>
            </clipPath>
<clipPath id="terminal-3407659274-line-5">
    <rect x="0" y="123.5" width="976" height="24.65"/>
            </clipPath>
<clipPath id="terminal-3407659274-line-6">
    <rect x="0" y="147.9" width="976" height="24.65"/>
            </clipPath>
<clipPath id="terminal-3407659274-line-7">
    <rect x="0" y="172.3" width="976" height="24.65"/>
            </clipPath>
<clipPath id="terminal-3407659274-line-8">
    <rect x="0" y="196.7" width="976" height="24.65"/>
            </clipPath>
<clipPath id="terminal-3407659274-line-9">
    <rect x="0" y="221.1" width="976" height="24.65"/>
            </clipPath>
<clipPath id="terminal-3407659274-line-10">
    <rect x="0" y="245.5" width="976" height="24.65"/>
            </clipPath>
<clipPath id="terminal-3407659274-line-11">
    <rect x="0" y="269.9" width="976" height="24.65"/>
            </clipPath>
<clipPath id="terminal-3407659274-line-12">
    <rect x="0" y="294.3" width="976" height="24.65"/>
            </clipPath>
<clipPath id="terminal-3407659274-line-13">
    <rect x="0" y="318.7" width="976" height="24.65"/>
            </clipPath>
<clipPath id="terminal-3407659274-line-14">
    <rect x="0" y="343.1" width="976" height="24.65"/>
            </clipPath>
<clipPath id="terminal-3407659274-line-15">
    <rect x="0" y="367.5" width="976" height="24.65"/>
            </clipPath>
<clipPath id="terminal-3407659274-line-16">
    <rect x="0" y="391.9" width="976" height="24.65"/>
            </clipPath>
<clipPath id="terminal-3407659274-line-17">
    <rect x="0" y="416.3" width="976" height="24.65"/>
            </clipPath>
<clipPath id="terminal-3407659274-line-18">
    <rect x="0" y="440.7" width="976" height="24.65"/>
            </clipPath>
<clipPath id="terminal-3407659274-line-19">
    <rect x="0" y="465.1" width="976" height="24.65"/>
            </clipPath>
<clipPath id="terminal-3407659274-line-20">
    <rect x="0" y="489.5" width="976" height="24.65"/>
            </clipPath>
<clipPath id="terminal-3407659274-line-21">
    <rect x="0" y="513.9" width="976" height="24.65"/>
            </clipPath>
<clipPath id="terminal-3407659274-line-22">
    <rect x="0" y="538.3" width="976" height="24.65"/>
            </clipPath>
    </defs>

    <rect fill="#292929" stroke="rgba(255,255,255,0.35)" stroke-width="1" x="1" y="1" width="992" height="633.6" rx="8"/><text class="terminal-3407659274-title" fill="#c5c8c6" text-anchor="middle" x="496" y="27">DependentTodosApp</text>
            <g transform="translate(26,22)">
            <circle cx="0" cy="0" r="7" fill="#ff5f57"/>
            <circle cx="22" cy="0" r="7" fill="#febc2e"/>
            <circle cx="44" cy="0" r="7" fill="#28c840"/>
            </g>
        
    <g transform="translate(9, 41)" clip-path="url(#terminal-3407659274-clip-terminal)">
    <rect fill="#1e1e1e" x="0" y="1.5" width="12.2" height="24.65" shape-rendering="crispEdges"/><rect fill="#1e1e1e" x="12.2" y="1.5" width="963.8" height="24.65" shape-rendering="crispEdges"/><rect fill="#1e1e1e" x="0" y="25.9" width="12.2" height="24.65" shape-rendering="crispEdges"/><rect fill="#1e1e1e" x="12.2" y="25.9" width="963.8" height="24.65" shape-rendering="crispEdges"/><rect fill="#1e1e1e" x="0" y="50.3" width="12.2" height="24.65" shape-rendering="crispEdges"/><rect fill="#1e1e1e" x="12.2" y="50.3" width="24.4" height="24.65" shape-rendering="crispEdges"/><rect fill="#1e1e1e" x="36.6" y="50.3" width="573.4" height="24.65" shape-rendering="crispEdges"/><rect fill="#1b1b1b" x="610" y="50.3" width="12.2" height="24.65" shape-rendering="crispEdges"/><rect fill="#1e1e1e" x="622.2" y="50.3" width="353.8" height="24.65" shape-rendering="crispEdges"/><rect fill="#1e1e1e" x="0" y="74.7" width="12.2" height="24.65" shape-rendering="crispEdges"/><rect fill="#1e1e1e" x="12.2" y="74.7" width="24.4" height="24.65" shape-rendering="crispEdges"/><rect fill="#1e1e1e" x="36.6" y="74.7" width="12.2" height="24.65" shape-rendering="crispEdges"/><rect fill="#1e1e1e" x="48.8" y="74.7" width="170.8" height="24.65" shape-rendering="crispEdges"/><rect fill="#1e1e1e" x="219.6" y="74.7" width="378.2" height="24.65" shape-rendering="crispEdges"/><rect fill="#1e1e1e" x="597.8" y="74.7" width="12.2" height="24.65" shape-rendering="crispEdges"/><rect fill="#1b1b1b" x="610" y="74.7" width="12.2" height="24.65" shape-rendering="crispEdges"/><rect fill="#1e1e1e" x="622.2" y="74.7" width="353.8" height="24.65" shape-rendering="crispEdges"/><rect fill="#1e1e1e" x="0" y="99.1" width="12.2" height="24.65" shape-rendering="crispEdges"/><rect fill="#1e1e1e" x="12.2" y="99.1" width="24.4" height="24.65" shape-rendering="crispEdges"/><rect fill="#1e1e1e" x="36.6" y="99.1" width="939.4" height="24.65" shape-rendering="crispEdges"/><rect fill="#1e1e1e" x="0" y="123.5" width="12.2" height="24.65" shape-rendering="crispEdges"/><rect fill="#1e1e1e" x="12.2" y="123.5" width="24.4" height="24.65" shape-rendering="crispEdges"/><rect fill="#0178d4" x="36.6" y="123.5" width="12.2" height="24.65" shape-rendering="crispEdges"/><rect fill="#1e1e1e" x="48.8" y="123.5" width="927.2" height="24.65" shape-rendering="crispEdges"/><rect fill="#1e1e1e" x="0" y="147.9" width="12.2" height="24.65" shape-rendering="crispEdges"/><rect fill="#1e1e1e" x="12.2" y="147.9" width="24.4" height="24.65" shape-rendering="crispEdges"/><rect fill="#0178d4" x="36.6" y="147.9" width="12.2" height="24.65" shape-rendering="crispEdges"/><rect fill="#1e1e1e" x="48.8" y="147.9" width="12.2" height="24.65" shape-rendering="crispEdges"/><rect fill="#e0e0e0" x="61" y="147.9" width="12.2" height="24.65" shape-rendering="crispEdges"/><rect fill="#1e1e1e" x="73.2" y="147.9" width="134.2" height="24.65" shape-rendering="crispEdges"/><rect fill="#1e1e1e" x="207.4" y="147.9" width="768.6" height="24.65" shape-rendering="crispEdges"/><rect fill="#1e1e1e" x="0" y="172.3" width="12.2" height="24.65" shape-rendering="crispEdges"/><rect fill="#1e1e1e" x="12.2" y="172.3" width="24.4" height="24.65" shape-rendering="crispEdges"/><rect fill="#0178d4" x="36.6" y="172.3" width="12.2" height="24.65" shape-rendering="crispEdges"/><rect fill="#1e1e1e" x="48.8" y="172.3" width="12.2" height="24.65" shape-rendering="crispEdges"/><rect fill="#1e1e1e" x="61" y="172.3" width="915" height="24.65" shape-rendering="crispEdges"/><rect fill="#1e1e1e" x="0" y="196.7" width="12.2" height="24.65" shape-rendering="crispEdges"/><rect fill="#1e1e1e" x="12.2" y="196.7" width="24.4" height="24.65" shape-rendering="crispEdges"/><rect fill="#0178d4" x="36.6" y="196.7" width="12.2" height="24.65" shape-rendering="crispEdges"/><rect fill="#1e1e1e" x="48.8" y="196.7" width="12.2" height="24.65" shape-rendering="crispEdges"/><rect fill="#1e1e1e" x="61" y="196.7" width="915" height="24.65" shape-rendering="crispEdges"/><rect fill="#1e1e1e" x="0" y="221.1" width="12.2" height="24.65" shape-rendering="crispEdges"/><rect fill="#1e1e1e" x="12.2" y="221.1" width="24.4" height="24.65" shape-rendering="crispEdges"/><rect fill="#0178d4" x="36.6" y="221.1" width="12.2" height="24.65" shape-rendering="crispEdges"/><rect fill="#1e1e1e" x="48.8" y="221.1" width="12.2" height="24.65" shape-rendering="crispEdges"/><rect fill="#1e1e1e" x="61" y="221.1" width="915" height="24.65" shape-rendering="crispEdges"/><rect fill="#1e1e1e" x="0" y="245.5" width="12.2" height="24.65" shape-rendering="crispEdges"/><rect fill="#1e1e1e" x="12.2" y="245.5" width="24.4" height="24.65" shape-rendering="crispEdges"/><rect fill="#0178d4" x="36.6" y="245.5" width="12.2" height="24.65" shape-rendering="crispEdges"/><rect fill="#1e1e1e" x="48.8" y="245.5" width="12.2" height="24.65" shape-rendering="crispEdges"/><rect fill="#1e1e1e" x="61" y="245.5" width="915" height="24.65" shape-rendering="crispEdges"/><rect fill="#1e1e1e" x="0" y="269.9" width="12.2" height="24.65" shape-rendering="crispEdges"/><rect fill="#1e1e1e" x="12.2" y="269.9" width="24.4" height="24.65" shape-rendering="crispEdges"/><rect fill="#0178d4" x="36.6" y="269.9" width="12.2" height="24.65" shape-rendering="crispEdges"/><rect fill="#1e1e1e" x="48.8" y="269.9" width="12.2" height="24.65" shape-rendering="crispEdges"/><rect fill="#1e1e1e" x="61" y="269.9" width="915" height="24.65" shape-rendering="crispEdges"/><rect fill="#1e1e1e" x="0" y="294.3" width="12.2" height="24.65" shape-rendering="crispEdges"/><rect fill="#1e1e1e" x="12.2" y="294.3" width="24.4" height="24.65" shape-rendering="crispEdges"/><rect fill="#0178d4" x="36.6" y="294.3" width="12.2" height="24.65" shape-rendering="crispEdges"/><rect fill="#1e1e1e" x="48.8" y="294.3" width="12.2" height="24.65" shape-rendering="crispEdges"/><rect fill="#1e1e1e" x="61" y="294.3" width="915" height="24.65" shape-rendering="crispEdges"/><rect fill="#1e1e1e" x="0" y="318.7" width="12.2" height="24.65" shape-rendering="crispEdges"/><rect fill="#1e1e1e" x="12.2" y="318.7" width="24.4" height="24.65" shape-rendering="crispEdges"/><rect fill="#0178d4" x="36.6" y="318.7" width="12.2" height="24.65" shape-rendering="crispEdges"/><rect fill="#1e1e1e" x="48.8" y="318.7" width="12.2" height="24.65" shape-rendering="crispEdges"/><rect fill="#1e1e1e" x="61" y="318.7" width="915" height="24.65" shape-rendering="crispEdges"/><rect fill="#1e1e1e" x="0" y="343.1" width="12.2" height="24.65" shape-rendering="crispEdges"/><rect fill="#1e1e1e" x="12.2" y="343.1" width="24.4" height="24.65" shape-rendering="crispEdges"/><rect fill="#0178d4" x="36.6" y="343.1" width="12.2" height="24.65" shape-rendering="crispEdges"/><rect fill="#1e1e1e" x="48.8" y="343.1" width="12.2" height="24.65" shape-rendering="crispEdges"/><rect fill="#1e1e1e" x="61" y="343.1" width="915" height="24.65" shape-rendering="crispEdges"/><rect fill="#1e1e1e" x="0" y="367.5" width="12.2" height="24.65" shape-rendering="crispEdges"/><rect fill="#1e1e1e" x="12.2" y="367.5" width="24.4" height="24.65" shape-rendering="crispEdges"/><rect fill="#0178d4" x="36.6" y="367.5" width="12.2" height="24.65" shape-rendering="crispEdges"/><rect fill="#1e1e1e" x="48.8" y="367.5" width="927.2" height="24.65" shape-rendering="crispEdges"/><rect fill="#1e1e1e" x="0" y="391.9" width="12.2" height="24.65" shape-rendering="crispEdges"/><rect fill="#1e1e1e" x="12.2" y="391.9" width="24.4" height="24.65" shape-rendering="crispEdges"/><rect fill="#1e1e1e" x="36.6" y="391.9" width="939.4" height="24.65" shape-rendering="crispEdges"/><rect fill="#1e1e1e" x="0" y="416.3" width="12.2" height="24.65" shape-rendering="crispEdges"/><rect fill="#1e1e1e" x="12.2" y="416.3" width="24.4" height="24.65" shape-rendering="crispEdges"/><rect fill="#1e1e1e" x="36.6" y="416.3" width="134.2" height="24.65" shape-rendering="crispEdges"/><rect fill="#1e1e1e" x="170.8" y="416.3" width="134.2" height="24.65" shape-rendering="crispEdges"/><rect fill="#1e1e1e" x="305" y="416.3" width="12.2" height="24.65" shape-rendering="crispEdges"/><rect fill="#191919" x="317.2" y="416.3" width="12.2" height="24.65" shape-rendering="crispEdges"/><rect fill="#1e1e1e" x="329.4" y="416.3" width="256.2" height="24.65" shape-rendering="crispEdges"/><rect fill="#1e1e1e" x="585.6" y="416.3" width="12.2" height="24.65" shape-rendering="crispEdges"/><rect fill="#1e1e1e" x="597.8" y="416.3" width="378.2" height="24.65" shape-rendering="crispEdges"/><rect fill="#1e1e1e" x="0" y="440.7" width="12.2" height="24.65" shape-rendering="crispEdges"/><rect fill="#1e1e1e" x="12.2" y="440.7" width="24.4" height="24.65" shape-rendering="crispEdges"/><rect fill="#1e1e1e" x="36.6" y="440.7" width="585.6" height="24.65" shape-rendering="crispEdges"/><rect fill="#4ebf71" x="622.2" y="440.7" width="353.8" height="24.65" shape-rendering="crispEdges"/><rect fill="#1e1e1e" x="0" y="465.1" width="12.2" height="24.65" shape-rendering="crispEdges"/><rect fill="#1e1e1e" x="12.2" y="465.1" width="24.4" height="24.65" shape-rendering="crispEdges"/><rect fill="#1e1e1e" x="36.6" y="465.1" width="585.6" height="24.65" shape-rendering="crispEdges"/><rect fill="#4ebf71" x="622.2" y="465.1" width="244" height="24.65" shape-rendering="crispEdges"/><rect fill="#4ebf71" x="866.2" y="465.1" width="48.8" height="24.65" shape-rendering="crispEdges"/><rect fill="#4ebf71" x="915" y="465.1" width="61" height="24.65" shape-rendering="crispEdges"/><rect fill="#1e1e1e" x="0" y="489.5" width="12.2" height="24.65" shape-rendering="crispEdges"/><rect fill="#1e1e1e" x="12.2" y="489.5" width="24.4" height="24.65" shape-rendering="crispEdges"/><rect fill="#1e1e1e" x="36.6" y="489.5" width="12.2" height="24.65" shape-rendering="crispEdges"/><rect fill="#1e1e1e" x="48.8" y="489.5" width="536.8" height="24.65" shape-rendering="crispEdges"/><rect fill="#1e1e1e" x="585.6" y="489.5" width="36.6" height="24.65" shape-rendering="crispEdges"/><rect fill="#4ebf71" x="622.2" y="489.5" width="353.8" height="24.65" shape-rendering="crispEdges"/><rect fill="#1e1e1e" x="0" y="513.9" width="12.2" height="24.65" shape-rendering="crispEdges"/><rect fill="#1e1e1e" x="12.2" y="513.9" width="24.4" height="24.65" shape-rendering="crispEdges"/><rect fill="#1e1e1e" x="36.6" y="513.9" width="939.4" height="24.65" shape-rendering="crispEdges"/><rect fill="#1e1e1e" x="0" y="538.3" width="12.2" height="24.65" shape-rendering="crispEdges"/><rect fill="#1e1e1e" x="12.2" y="538.3" width="963.8" height="24.65" shape-rendering="crispEdges"/><rect fill="#1e1e1e" x="0" y="562.7" width="12.2" height="24.65" shape-rendering="crispEdges"/><rect fill="#1e1e1e" x="12.2" y="562.7" width="963.8" height="24.65" shape-rendering="crispEdges"/>
    <g class="terminal-3407659274-matrix">
    <text class="terminal-3407659274-r1" x="0" y="20" textLength="12.2" clip-path="url(#terminal-3407659274-line-0)">█</text><text class="terminal-3407659274-r1" x="12.2" y="20" textLength="963.8" clip-path="url(#terminal-3407659274-line-0)">▀▀▀▀▀▀▀▀▀▀▀▀▀▀▀▀▀▀▀▀▀▀▀▀▀▀▀▀▀▀▀▀▀▀▀▀▀▀▀▀▀▀▀▀▀▀▀▀▀▀▀▀▀▀▀▀▀▀▀▀▀▀▀▀▀▀▀▀▀▀▀▀▀▀▀▀▀▀▀</text><text class="terminal-3407659274-r2" x="976" y="20" textLength="12.2" clip-path="url(#terminal-3407659274-line-0)">
</text><text class="terminal-3407659274-r1" x="0" y="44.4" textLength="12.2" clip-path="url(#terminal-3407659274-line-1)">█</text><text class="terminal-3407659274-r2" x="976" y="44.4" textLength="12.2" clip-path="url(#terminal-3407659274-line-1)">
</text><text class="terminal-3407659274-r1" x="0" y="68.8" textLength="12.2" clip-path="url(#terminal-3407659274-line-2)">█</text><text class="terminal-3407659274-r3" x="610" y="68.8" textLength="12.2" clip-path="url(#terminal-3407659274-line-2)">▊</text><text class="terminal-3407659274-r4" x="622.2" y="68.8" textLength="353.8" clip-path="url(#terminal-3407659274-line-2)">▔▔▔▔▔▔▔▔▔▔▔▔▔▔▔▔▔▔▔▔▔▔▔▔▔▔▔▔▔</text><text class="terminal-3407659274-r2" x="976" y="68.8" textLength="12.2" clip-path="url(#terminal-3407659274-line-2)">
</text><text class="terminal-3407659274-r1" x="0" y="93.2" textLength="12.2" clip-path="url(#terminal-3407659274-line-3)">█</text><text class="terminal-3407659274-r5" x="48.8" y="93.2" textLength="170.8" clip-path="url(#terminal-3407659274-line-3)">Add&#160;a&#160;new&#160;task</text><text class="terminal-3407659274-r3" x="610" y="93.2" textLength="12.2" clip-path="url(#terminal-3407659274-line-3)">▊</text><text class="terminal-3407659274-r4" x="622.2" y="93.2" textLength="353.8" clip-path="url(#terminal-3407659274-line-3)">▁▁▁▁▁▁▁▁▁▁▁▁▁▁▁▁▁▁▁▁▁▁▁▁▁▁▁▁▁</text><text class="terminal-3407659274-r2" x="976" y="93.2" textLength="12.2" clip-path="url(#terminal-3407659274-line-3)">
</text><text class="terminal-3407659274-r1" x="0" y="117.6" textLength="12.2" clip-path="url(#terminal-3407659274-line-4)">█</text><text class="terminal-3407659274-r2" x="976" y="117.6" textLength="12.2" clip-path="url(#terminal-3407659274-line-4)">
</text><text class="terminal-3407659274-r1" x="0" y="142" textLength="12.2" clip-path="url(#terminal-3407659274-line-5)">█</text><text class="terminal-3407659274-r3" x="36.6" y="142" textLength="12.2" clip-path="url(#terminal-3407659274-line-5)">▊</text><text class="terminal-3407659274-r6" x="48.8" y="142" textLength="927.2" clip-path="url(#terminal-3407659274-line-5)">▔▔▔▔▔▔▔▔▔▔▔▔▔▔▔▔▔▔▔▔▔▔▔▔▔▔▔▔▔▔▔▔▔▔▔▔▔▔▔▔▔▔▔▔▔▔▔▔▔▔▔▔▔▔▔▔▔▔▔▔▔▔▔▔▔▔▔▔▔▔▔▔▔▔▔▔</text><text class="terminal-3407659274-r2" x="976" y="142" textLength="12.2" clip-path="url(#terminal-3407659274-line-5)">
</text><text class="terminal-3407659274-r1" x="0" y="166.4" textLength="12.2" clip-path="url(#terminal-3407659274-line-6)">█</text><text class="terminal-3407659274-r3" x="36.6" y="166.4" textLength="12.2" clip-path="url(#terminal-3407659274-line-6)">▊</text><text class="terminal-3407659274-r1" x="61" y="166.4" textLength="12.2" clip-path="url(#terminal-3407659274-line-6)">T</text><text class="terminal-3407659274-r7" x="73.2" y="166.4" textLength="134.2" clip-path="url(#terminal-3407659274-line-6)">ask&#160;message</text><text class="terminal-3407659274-r2" x="976" y="166.4" textLength="12.2" clip-path="url(#terminal-3407659274-line-6)">
</text><text class="terminal-3407659274-r1" x="0" y="190.8" textLength="12.2" clip-path="url(#terminal-3407659274-line-7)">█</text><text class="terminal-3407659274-r3" x="36.6" y="190.8" textLength="12.2" clip-path="url(#terminal-3407659274-line-7)">▊</text><text class="terminal-3407659274-r2" x="976" y="190.8" textLength="12.2" clip-path="url(#terminal-3407659274-line-7)">
</text><text class="terminal-3407659274-r1" x="0" y="215.2" textLength="12.2" clip-path="url(#terminal-3407659274-line-8)">█</text><text class="terminal-3407659274-r3" x="36.6" y="215.2" textLength="12.2" clip-path="url(#terminal-3407659274-line-8)">▊</text><text class="terminal-3407659274-r2" x="976" y="215.2" textLength="12.2" clip-path="url(#terminal-3407659274-line-8)">
</text><text class="terminal-3407659274-r1" x="0" y="239.6" textLength="12.2" clip-path="url(#terminal-3407659274-line-9)">█</text><text class="terminal-3407659274-r3" x="36.6" y="239.6" textLength="12.2" clip-path="url(#terminal-3407659274-line-9)">▊</text><text class="terminal-3407659274-r2" x="976" y="239.6" textLength="12.2" clip-path="url(#terminal-3407659274-line-9)">
</text><text class="terminal-3407659274-r1" x="0" y="264" textLength="12.2" clip-path="url(#terminal-3407659274-line-10)">█</text><text class="terminal-3407659274-r3" x="36.6" y="264" textLength="12.2" clip-path="url(#terminal-3407659274-line-10)">▊</text><text class="terminal-3407659274-r2" x="976" y="264" textLength="12.2" clip-path="url(#terminal-3407659274-line-10)">
</text><text class="terminal-3407659274-r1" x="0" y="288.4" textLength="12.2" clip-path="url(#terminal-3407659274-line-11)">█</text><text class="terminal-3407659274-r3" x="36.6" y="288.4" textLength="12.2" clip-path="url(#terminal-3407659274-line-11)">▊</text><text class="terminal-3407659274-r2" x="976" y="288.4" textLength="12.2" clip-path="url(#terminal-3407659274-line-11)">
</text><text class="terminal-3407659274-r1" x="0" y="312.8" textLength="12.2" clip-path="url(#terminal-3407659274-line-12)">█</text><text class="terminal-3407659274-r3" x="36.6" y="312.8" textLength="12.2" clip-path="url(#terminal-3407659274-line-12)">▊</text><text class="terminal-3407659274-r2" x="976" y="312.8" textLength="12.2" clip-path="url(#terminal-3407659274-line-12)">
</text><text class="terminal-3407659274-r1" x="0" y="337.2" textLength="12.2" clip-path="url(#terminal-3407659274-line-13)">█</text><text class="terminal-3407659274-r3" x="36.6" y="337.2" textLength="12.2" clip-path="url(#terminal-3407659274-line-13)">▊</text><text class="terminal-3407659274-r2" x="976" y="337.2" textLength="12.2" clip-path="url(#terminal-3407659274-line-13)">
</text><text class="terminal-3407659274-r1" x="0" y="361.6" textLength="12.2" clip-path="url(#terminal-3407659274-line-14)">█</text><text class="terminal-3407659274-r3" x="36.6" y="361.6" textLength="12.2" clip-path="url(#terminal-3407659274-line-14)">▊</text><text class="terminal-3407659274-r2" x="976" y="361.6" textLength="12.2" clip-path="url(#terminal-3407659274-line-14)">
</text><text class="terminal-3407659274-r1" x="0" y="386" textLength="12.2" clip-path="url(#terminal-3407659274-line-15)">█</text><text class="terminal-3407659274-r3" x="36.6" y="386" textLength="12.2" clip-path="url(#terminal-3407659274-line-15)">▊</text><text class="terminal-3407659274-r6" x="48.8" y="386" textLength="927.2" clip-path="url(#terminal-3407659274-line-15)">▁▁▁▁▁▁▁▁▁▁▁▁▁▁▁▁▁▁▁▁▁▁▁▁▁▁▁▁▁▁▁▁▁▁▁▁▁▁▁▁▁▁▁▁▁▁▁▁▁▁▁▁▁▁▁▁▁▁▁▁▁▁▁▁▁▁▁▁▁▁▁▁▁▁▁▁</text><text class="terminal-3407659274-r2" x="976" y="386" textLength="12.2" clip-path="url(#terminal-3407659274-line-15)">
</text><text class="terminal-3407659274-r1" x="0" y="410.4" textLength="12.2" clip-path="url(#terminal-3407659274-line-16)">█</text><text class="terminal-3407659274-r2" x="976" y="410.4" textLength="12.2" clip-path="url(#terminal-3407659274-line-16)">
</text><text class="terminal-3407659274-r1" x="0" y="434.8" textLength="12.2" clip-path="url(#terminal-3407659274-line-17)">█</text><text class="terminal-3407659274-r8" x="36.6" y="434.8" textLength="134.2" clip-path="url(#terminal-3407659274-line-17)">Depends&#160;on:</text><text class="terminal-3407659274-r3" x="317.2" y="434.8" textLength="12.2" clip-path="url(#terminal-3407659274-line-17)">▊</text><text class="terminal-3407659274-r9" x="329.4" y="434.8" textLength="256.2" clip-path="url(#terminal-3407659274-line-17)">▔▔▔▔▔▔▔▔▔▔▔▔▔▔▔▔▔▔▔▔▔</text><text class="terminal-3407659274-r9" x="585.6" y="434.8" textLength="12.2" clip-path="url(#terminal-3407659274-line-17)">▎</text><text class="terminal-3407659274-r2" x="976" y="434.8" textLength="12.2" clip-path="url(#terminal-3407659274-line-17)">
</text><text class="terminal-3407659274-r1" x="0" y="459.2" textLength="12.2" clip-path="url(#terminal-3407659274-line-18)">█</text><text class="terminal-3407659274-r10" x="622.2" y="459.2" textLength="353.8" clip-path="url(#terminal-3407659274-line-18)">▔▔▔▔▔▔▔▔▔▔▔▔▔▔▔▔▔▔▔▔▔▔▔▔▔▔▔▔▔</text><text class="terminal-3407659274-r2" x="976" y="459.2" textLength="12.2" clip-path="url(#terminal-3407659274-line-18)">
</text><text class="terminal-3407659274-r1" x="0" y="483.6" textLength="12.2" clip-path="url(#terminal-3407659274-line-19)">█</text><text class="terminal-3407659274-r11" x="866.2" y="483.6" textLength="48.8" clip-path="url(#terminal-3407659274-line-19)">&#160;Ok&#160;</text><text class="terminal-3407659274-r2" x="976" y="483.6" textLength="12.2" clip-path="url(#terminal-3407659274-line-19)">
</text><text class="terminal-3407659274-r1" x="0" y="508" textLength="12.2" clip-path="url(#terminal-3407659274-line-20)">█</text><text class="terminal-3407659274-r12" x="48.8" y="508" textLength="536.8" clip-path="url(#terminal-3407659274-line-20)">▔▔▔▔▔▔▔▔▔▔▔▔▔▔▔▔▔▔▔▔▔▔▔▔▔▔▔▔▔▔▔▔▔▔▔▔▔▔▔▔▔▔▔▔</text><text class="terminal-3407659274-r13" x="622.2" y="508" textLength="353.8" clip-path="url(#terminal-3407659274-line-20)">▁▁▁▁▁▁▁▁▁▁▁▁▁▁▁▁▁▁▁▁▁▁▁▁▁▁▁▁▁</text><text class="terminal-3407659274-r2" x="976" y="508" textLength="12.2" clip-path="url(#terminal-3407659274-line-20)">
</text><text class="terminal-3407659274-r1" x="0" y="532.4" textLength="12.2" clip-path="url(#terminal-3407659274-line-21)">█</text><text class="terminal-3407659274-r2" x="976" y="532.4" textLength="12.2" clip-path="url(#terminal-3407659274-line-21)">
</text><text class="terminal-3407659274-r1" x="0" y="556.8" textLength="12.2" clip-path="url(#terminal-3407659274-line-22)">█</text><text class="terminal-3407659274-r2" x="976" y="556.8" textLength="12.2" clip-path="url(#terminal-3407659274-line-22)">
</text><text class="terminal-3407659274-r1" x="0" y="581.2" textLength="12.2" clip-path="url(#terminal-3407659274-line-23)">█</text><text class="terminal-3407659274-r1" x="12.2" y="581.2" textLength="963.8" clip-path="url(#terminal-3407659274-line-23)">▄▄▄▄▄▄▄▄▄▄▄▄▄▄▄▄▄▄▄▄▄▄▄▄▄▄▄▄▄▄▄▄▄▄▄▄▄▄▄▄▄▄▄▄▄▄▄▄▄▄▄▄▄▄▄▄▄▄▄▄▄▄▄▄▄▄▄▄▄▄▄▄▄▄▄▄▄▄▄</text>
    </g>
    </g>
</svg>
